<svg xmlns="http://www.w3.org/2000/svg" width="1300" height="2280" viewBox="0 0 1300 2280">
<defs>
  <marker id="arrow" markerWidth="10" markerHeight="10" refX="10" refY="5" orient="auto" markerUnits="strokeWidth">
    <path d="M0,0 L10,5 L0,10 z" fill="#1f2937" />
  </marker>
</defs>
<rect x="0" y="0" width="100%" height="100%" fill="#ffffff"/>
<path d="M 700.0 90 L 700.0 130" fill="none" stroke="#1f2937" stroke-width="2" marker-end="url(#arrow)" />
<path d="M 700.0 200 L 700.0 230" fill="none" stroke="#1f2937" stroke-width="2" marker-end="url(#arrow)" />
<path d="M 700.0 350 L 700.0 380" fill="none" stroke="#1f2937" stroke-width="2" marker-end="url(#arrow)" />
<text x="660.0" y="355.0" text-anchor="middle" font-family="Segoe UI, Arial" font-size="14" fill="#111827">Si</text>
<path d="M 560 290.0 L 560 292.5 L 440 292.5 L 440 295.0" fill="none" stroke="#1f2937" stroke-width="2" marker-end="url(#arrow)" />
<text x="500.0" y="282.5" text-anchor="middle" font-family="Segoe UI, Arial" font-size="14" fill="#111827">No</text>
<path d="M 280.0 340 L 280.0 377.5 L 520 377.5 L 520 415.0" fill="none" stroke="#1f2937" stroke-width="2" marker-end="url(#arrow)" />
<path d="M 700.0 450 L 700.0 480" fill="none" stroke="#1f2937" stroke-width="2" marker-end="url(#arrow)" />
<path d="M 700.0 600 L 700.0 630" fill="none" stroke="#1f2937" stroke-width="2" marker-end="url(#arrow)" />
<text x="660.0" y="605.0" text-anchor="middle" font-family="Segoe UI, Arial" font-size="14" fill="#111827">Si</text>
<path d="M 560 540.0 L 560 542.5 L 440 542.5 L 440 545.0" fill="none" stroke="#1f2937" stroke-width="2" marker-end="url(#arrow)" />
<text x="500.0" y="532.5" text-anchor="middle" font-family="Segoe UI, Arial" font-size="14" fill="#111827">No</text>
<path d="M 280.0 590 L 280.0 627.5 L 520 627.5 L 520 665.0" fill="none" stroke="#1f2937" stroke-width="2" marker-end="url(#arrow)" />
<path d="M 700.0 700 L 700.0 730" fill="none" stroke="#1f2937" stroke-width="2" marker-end="url(#arrow)" />
<path d="M 700.0 800 L 700.0 830" fill="none" stroke="#1f2937" stroke-width="2" marker-end="url(#arrow)" />
<path d="M 840 890.0 L 840 892.5 L 940 892.5 L 940 895.0" fill="none" stroke="#1f2937" stroke-width="2" marker-end="url(#arrow)" />
<text x="890.0" y="882.5" text-anchor="middle" font-family="Segoe UI, Arial" font-size="14" fill="#111827">No</text>
<path d="M 700.0 950 L 700.0 980" fill="none" stroke="#1f2937" stroke-width="2" marker-end="url(#arrow)" />
<text x="660.0" y="955.0" text-anchor="middle" font-family="Segoe UI, Arial" font-size="14" fill="#111827">Si</text>
<path d="M 840 1040.0 L 840 1042.5 L 940 1042.5 L 940 1045.0" fill="none" stroke="#1f2937" stroke-width="2" marker-end="url(#arrow)" />
<text x="890.0" y="1032.5" text-anchor="middle" font-family="Segoe UI, Arial" font-size="14" fill="#111827">No</text>
<path d="M 700.0 1100 L 700.0 1130" fill="none" stroke="#1f2937" stroke-width="2" marker-end="url(#arrow)" />
<text x="660.0" y="1105.0" text-anchor="middle" font-family="Segoe UI, Arial" font-size="14" fill="#111827">Si</text>
<path d="M 840 1190.0 L 840 1192.5 L 940 1192.5 L 940 1195.0" fill="none" stroke="#1f2937" stroke-width="2" marker-end="url(#arrow)" />
<text x="890.0" y="1182.5" text-anchor="middle" font-family="Segoe UI, Arial" font-size="14" fill="#111827">Si</text>
<path d="M 700.0 1250 L 700.0 1280" fill="none" stroke="#1f2937" stroke-width="2" marker-end="url(#arrow)" />
<text x="660.0" y="1255.0" text-anchor="middle" font-family="Segoe UI, Arial" font-size="14" fill="#111827">No</text>
<path d="M 700.0 1350 L 700.0 1380" fill="none" stroke="#1f2937" stroke-width="2" marker-end="url(#arrow)" />
<path d="M 560 1440.0 L 560 1442.5 L 440 1442.5 L 440 1445.0" fill="none" stroke="#1f2937" stroke-width="2" marker-end="url(#arrow)" />
<text x="500.0" y="1432.5" text-anchor="middle" font-family="Segoe UI, Arial" font-size="14" fill="#111827">No</text>
<path d="M 700.0 1500 L 700.0 1530" fill="none" stroke="#1f2937" stroke-width="2" marker-end="url(#arrow)" />
<text x="660.0" y="1505.0" text-anchor="middle" font-family="Segoe UI, Arial" font-size="14" fill="#111827">Si</text>
<path d="M 560 1590.0 L 560 1592.5 L 440 1592.5 L 440 1595.0" fill="none" stroke="#1f2937" stroke-width="2" marker-end="url(#arrow)" />
<text x="500.0" y="1582.5" text-anchor="middle" font-family="Segoe UI, Arial" font-size="14" fill="#111827">Si</text>
<path d="M 700.0 1650 L 700.0 1680" fill="none" stroke="#1f2937" stroke-width="2" marker-end="url(#arrow)" />
<text x="660.0" y="1655.0" text-anchor="middle" font-family="Segoe UI, Arial" font-size="14" fill="#111827">No</text>
<path d="M 560 1740.0 L 560 1742.5 L 440 1742.5 L 440 1745.0" fill="none" stroke="#1f2937" stroke-width="2" marker-end="url(#arrow)" />
<text x="500.0" y="1732.5" text-anchor="middle" font-family="Segoe UI, Arial" font-size="14" fill="#111827">Si</text>
<path d="M 700.0 1800 L 700.0 1830" fill="none" stroke="#1f2937" stroke-width="2" marker-end="url(#arrow)" />
<text x="660.0" y="1805.0" text-anchor="middle" font-family="Segoe UI, Arial" font-size="14" fill="#111827">No</text>
<path d="M 840 1890.0 L 840 1892.5 L 940 1892.5 L 940 1895.0" fill="none" stroke="#1f2937" stroke-width="2" marker-end="url(#arrow)" />
<text x="890.0" y="1882.5" text-anchor="middle" font-family="Segoe UI, Arial" font-size="14" fill="#111827">Si</text>
<path d="M 560 1890.0 L 560 1892.5 L 440 1892.5 L 440 1895.0" fill="none" stroke="#1f2937" stroke-width="2" marker-end="url(#arrow)" />
<text x="500.0" y="1882.5" text-anchor="middle" font-family="Segoe UI, Arial" font-size="14" fill="#111827">No</text>
<path d="M 700.0 1950 L 700.0 2000" fill="none" stroke="#1f2937" stroke-width="2" marker-end="url(#arrow)" />
<path d="M 840 2060.0 L 840 2062.5 L 940 2062.5 L 940 2065.0" fill="none" stroke="#1f2937" stroke-width="2" marker-end="url(#arrow)" />
<text x="890.0" y="2052.5" text-anchor="middle" font-family="Segoe UI, Arial" font-size="14" fill="#111827">Si</text>
<path d="M 700.0 2120 L 700.0 2200" fill="none" stroke="#1f2937" stroke-width="2" marker-end="url(#arrow)" />
<text x="660.0" y="2150.0" text-anchor="middle" font-family="Segoe UI, Arial" font-size="14" fill="#111827">No</text>
<path d="M 1100.0 2110 L 1100.0 2170.0 L 880 2170.0 L 880 2230.0" fill="none" stroke="#1f2937" stroke-width="2" marker-end="url(#arrow)" />
<rect x="480" y="30" width="440" height="60" rx="20" ry="20" fill="#bbf7d0" stroke="#1f2937" stroke-width="2" />
<text x="700.0" y="50.0" text-anchor="middle" font-family="Segoe UI, Arial" font-size="16" fill="#111827">Inicio watchdog.py</text>
<text x="700.0" y="70.0" text-anchor="middle" font-family="Segoe UI, Arial" font-size="16" fill="#111827">verificar()</text>
<rect x="520" y="130" width="360" height="70" fill="#e0f2fe" stroke="#1f2937" stroke-width="2" />
<text x="700.0" y="165.0" text-anchor="middle" font-family="Segoe UI, Arial" font-size="16" fill="#111827">leer_logs()</text>
<polygon points="700.0,230 840,290.0 700.0,350 560,290.0" fill="#fde68a" stroke="#1f2937" stroke-width="2" />
<text x="700.0" y="280.0" text-anchor="middle" font-family="Segoe UI, Arial" font-size="16" fill="#111827">Lectura</text>
<text x="700.0" y="300.0" text-anchor="middle" font-family="Segoe UI, Arial" font-size="16" fill="#111827">correcta?</text>
<rect x="120" y="250" width="320" height="90" fill="#fecaca" stroke="#1f2937" stroke-width="2" />
<text x="280.0" y="275.0" text-anchor="middle" font-family="Segoe UI, Arial" font-size="16" fill="#111827">enviar_alerta_teams()</text>
<text x="280.0" y="295.0" text-anchor="middle" font-family="Segoe UI, Arial" font-size="16" fill="#111827">Fallo lectura log</text>
<text x="280.0" y="315.0" text-anchor="middle" font-family="Segoe UI, Arial" font-size="16" fill="#111827">(continua ejecucion)</text>
<rect x="520" y="380" width="360" height="70" fill="#e0f2fe" stroke="#1f2937" stroke-width="2" />
<text x="700.0" y="415.0" text-anchor="middle" font-family="Segoe UI, Arial" font-size="16" fill="#111827">leer_config_desde_excel()</text>
<polygon points="700.0,480 840,540.0 700.0,600 560,540.0" fill="#fde68a" stroke="#1f2937" stroke-width="2" />
<text x="700.0" y="530.0" text-anchor="middle" font-family="Segoe UI, Arial" font-size="16" fill="#111827">Config activa</text>
<text x="700.0" y="550.0" text-anchor="middle" font-family="Segoe UI, Arial" font-size="16" fill="#111827">leida?</text>
<rect x="120" y="500" width="320" height="90" fill="#fecaca" stroke="#1f2937" stroke-width="2" />
<text x="280.0" y="525.0" text-anchor="middle" font-family="Segoe UI, Arial" font-size="16" fill="#111827">enviar_alerta_teams()</text>
<text x="280.0" y="545.0" text-anchor="middle" font-family="Segoe UI, Arial" font-size="16" fill="#111827">Fallo configuracion</text>
<text x="280.0" y="565.0" text-anchor="middle" font-family="Segoe UI, Arial" font-size="16" fill="#111827">(df vacio)</text>
<rect x="520" y="630" width="360" height="70" fill="#e0f2fe" stroke="#1f2937" stroke-width="2" />
<text x="700.0" y="665.0" text-anchor="middle" font-family="Segoe UI, Arial" font-size="16" fill="#111827">Iterar scripts activos</text>
<rect x="520" y="730" width="360" height="70" fill="#e0f2fe" stroke="#1f2937" stroke-width="2" />
<text x="700.0" y="755.0" text-anchor="middle" font-family="Segoe UI, Arial" font-size="16" fill="#111827">Registrar mensaje</text>
<text x="700.0" y="775.0" text-anchor="middle" font-family="Segoe UI, Arial" font-size="16" fill="#111827">Verificando script</text>
<polygon points="700.0,830 840,890.0 700.0,950 560,890.0" fill="#fde68a" stroke="#1f2937" stroke-width="2" />
<text x="700.0" y="880.0" text-anchor="middle" font-family="Segoe UI, Arial" font-size="16" fill="#111827">Cumple filtros</text>
<text x="700.0" y="900.0" text-anchor="middle" font-family="Segoe UI, Arial" font-size="16" fill="#111827">dia/semana?</text>
<rect x="940" y="850" width="320" height="90" fill="#ede9fe" stroke="#1f2937" stroke-width="2" />
<text x="1100.0" y="875.0" text-anchor="middle" font-family="Segoe UI, Arial" font-size="16" fill="#111827">Mensaje [SKIP]</text>
<text x="1100.0" y="895.0" text-anchor="middle" font-family="Segoe UI, Arial" font-size="16" fill="#111827">Fuera de calendario</text>
<text x="1100.0" y="915.0" text-anchor="middle" font-family="Segoe UI, Arial" font-size="16" fill="#111827">(siguiente script)</text>
<polygon points="700.0,980 840,1040.0 700.0,1100 560,1040.0" fill="#fde68a" stroke="#1f2937" stroke-width="2" />
<text x="700.0" y="1030.0" text-anchor="middle" font-family="Segoe UI, Arial" font-size="16" fill="#111827">Tiene ventana</text>
<text x="700.0" y="1050.0" text-anchor="middle" font-family="Segoe UI, Arial" font-size="16" fill="#111827">definida?</text>
<rect x="940" y="1000" width="320" height="90" fill="#ede9fe" stroke="#1f2937" stroke-width="2" />
<text x="1100.0" y="1025.0" text-anchor="middle" font-family="Segoe UI, Arial" font-size="16" fill="#111827">Mensaje [SKIP]</text>
<text x="1100.0" y="1045.0" text-anchor="middle" font-family="Segoe UI, Arial" font-size="16" fill="#111827">Sin hora/frecuencia</text>
<text x="1100.0" y="1065.0" text-anchor="middle" font-family="Segoe UI, Arial" font-size="16" fill="#111827">(siguiente script)</text>
<polygon points="700.0,1130 840,1190.0 700.0,1250 560,1190.0" fill="#fde68a" stroke="#1f2937" stroke-width="2" />
<text x="700.0" y="1180.0" text-anchor="middle" font-family="Segoe UI, Arial" font-size="16" fill="#111827">Antes de la</text>
<text x="700.0" y="1200.0" text-anchor="middle" font-family="Segoe UI, Arial" font-size="16" fill="#111827">ventana actual?</text>
<rect x="940" y="1150" width="320" height="90" fill="#ede9fe" stroke="#1f2937" stroke-width="2" />
<text x="1100.0" y="1175.0" text-anchor="middle" font-family="Segoe UI, Arial" font-size="16" fill="#111827">Mensaje [INFO]</text>
<text x="1100.0" y="1195.0" text-anchor="middle" font-family="Segoe UI, Arial" font-size="16" fill="#111827">Aun no es horario</text>
<text x="1100.0" y="1215.0" text-anchor="middle" font-family="Segoe UI, Arial" font-size="16" fill="#111827">(siguiente script)</text>
<rect x="520" y="1280" width="360" height="70" fill="#e0f2fe" stroke="#1f2937" stroke-width="2" />
<text x="700.0" y="1305.0" text-anchor="middle" font-family="Segoe UI, Arial" font-size="16" fill="#111827">Filtrar ejecuciones</text>
<text x="700.0" y="1325.0" text-anchor="middle" font-family="Segoe UI, Arial" font-size="16" fill="#111827">OK/ERROR recientes</text>
<polygon points="700.0,1380 840,1440.0 700.0,1500 560,1440.0" fill="#fde68a" stroke="#1f2937" stroke-width="2" />
<text x="700.0" y="1430.0" text-anchor="middle" font-family="Segoe UI, Arial" font-size="16" fill="#111827">Hay ejecuciones</text>
<text x="700.0" y="1450.0" text-anchor="middle" font-family="Segoe UI, Arial" font-size="16" fill="#111827">registradas?</text>
<rect x="120" y="1400" width="320" height="90" fill="#fecaca" stroke="#1f2937" stroke-width="2" />
<text x="280.0" y="1425.0" text-anchor="middle" font-family="Segoe UI, Arial" font-size="16" fill="#111827">Alerta Teams</text>
<text x="280.0" y="1445.0" text-anchor="middle" font-family="Segoe UI, Arial" font-size="16" fill="#111827">Nunca se ejecuto</text>
<text x="280.0" y="1465.0" text-anchor="middle" font-family="Segoe UI, Arial" font-size="16" fill="#111827">(siguiente script)</text>
<polygon points="700.0,1530 840,1590.0 700.0,1650 560,1590.0" fill="#fde68a" stroke="#1f2937" stroke-width="2" />
<text x="700.0" y="1580.0" text-anchor="middle" font-family="Segoe UI, Arial" font-size="16" fill="#111827">Ultimo error</text>
<text x="700.0" y="1600.0" text-anchor="middle" font-family="Segoe UI, Arial" font-size="16" fill="#111827">sin OK luego?</text>
<rect x="120" y="1550" width="320" height="90" fill="#fecaca" stroke="#1f2937" stroke-width="2" />
<text x="280.0" y="1575.0" text-anchor="middle" font-family="Segoe UI, Arial" font-size="16" fill="#111827">Alerta Teams</text>
<text x="280.0" y="1595.0" text-anchor="middle" font-family="Segoe UI, Arial" font-size="16" fill="#111827">Error no corregido</text>
<text x="280.0" y="1615.0" text-anchor="middle" font-family="Segoe UI, Arial" font-size="16" fill="#111827">(siguiente script)</text>
<polygon points="700.0,1680 840,1740.0 700.0,1800 560,1740.0" fill="#fde68a" stroke="#1f2937" stroke-width="2" />
<text x="700.0" y="1730.0" text-anchor="middle" font-family="Segoe UI, Arial" font-size="16" fill="#111827">Ejecucion</text>
<text x="700.0" y="1750.0" text-anchor="middle" font-family="Segoe UI, Arial" font-size="16" fill="#111827">en ventana?</text>
<rect x="120" y="1700" width="320" height="90" fill="#dcfce7" stroke="#1f2937" stroke-width="2" />
<text x="280.0" y="1725.0" text-anchor="middle" font-family="Segoe UI, Arial" font-size="16" fill="#111827">Mensaje [OK]</text>
<text x="280.0" y="1745.0" text-anchor="middle" font-family="Segoe UI, Arial" font-size="16" fill="#111827">Dentro de ventana</text>
<text x="280.0" y="1765.0" text-anchor="middle" font-family="Segoe UI, Arial" font-size="16" fill="#111827">(siguiente script)</text>
<polygon points="700.0,1830 840,1890.0 700.0,1950 560,1890.0" fill="#fde68a" stroke="#1f2937" stroke-width="2" />
<text x="700.0" y="1880.0" text-anchor="middle" font-family="Segoe UI, Arial" font-size="16" fill="#111827">Ejecucion</text>
<text x="700.0" y="1900.0" text-anchor="middle" font-family="Segoe UI, Arial" font-size="16" fill="#111827">en el dia?</text>
<rect x="940" y="1850" width="320" height="90" fill="#ede9fe" stroke="#1f2937" stroke-width="2" />
<text x="1100.0" y="1875.0" text-anchor="middle" font-family="Segoe UI, Arial" font-size="16" fill="#111827">Mensaje [INFO]</text>
<text x="1100.0" y="1895.0" text-anchor="middle" font-family="Segoe UI, Arial" font-size="16" fill="#111827">Fuera de ventana</text>
<text x="1100.0" y="1915.0" text-anchor="middle" font-family="Segoe UI, Arial" font-size="16" fill="#111827">(siguiente script)</text>
<rect x="120" y="1850" width="320" height="90" fill="#fecaca" stroke="#1f2937" stroke-width="2" />
<text x="280.0" y="1875.0" text-anchor="middle" font-family="Segoe UI, Arial" font-size="16" fill="#111827">Alerta Teams</text>
<text x="280.0" y="1895.0" text-anchor="middle" font-family="Segoe UI, Arial" font-size="16" fill="#111827">No se ejecuto hoy</text>
<text x="280.0" y="1915.0" text-anchor="middle" font-family="Segoe UI, Arial" font-size="16" fill="#111827">(siguiente script)</text>
<polygon points="700.0,2000 840,2060.0 700.0,2120 560,2060.0" fill="#fde68a" stroke="#1f2937" stroke-width="2" />
<text x="700.0" y="2050.0" text-anchor="middle" font-family="Segoe UI, Arial" font-size="16" fill="#111827">Mensajes para</text>
<text x="700.0" y="2070.0" text-anchor="middle" font-family="Segoe UI, Arial" font-size="16" fill="#111827">enviar?</text>
<rect x="940" y="2020" width="320" height="90" fill="#e0f2fe" stroke="#1f2937" stroke-width="2" />
<text x="1100.0" y="2055.0" text-anchor="middle" font-family="Segoe UI, Arial" font-size="16" fill="#111827">enviar_watchdog()</text>
<text x="1100.0" y="2075.0" text-anchor="middle" font-family="Segoe UI, Arial" font-size="16" fill="#111827">Resumen consola</text>
<rect x="520" y="2200" width="360" height="60" rx="20" ry="20" fill="#bbf7d0" stroke="#1f2937" stroke-width="2" />
<text x="700.0" y="2230.0" text-anchor="middle" font-family="Segoe UI, Arial" font-size="16" fill="#111827">Fin</text>
</svg>